#define tiny_H_width 5
#define tiny_H_height 7
#define tiny_H_x_hot 0
#define tiny_H_y_hot 6
static unsigned char tiny_H_bits[] = {
   0x09, 0x09, 0x09, 0x0f, 0x09, 0x09, 0x09};
