#define tiny_M_width 6
#define tiny_M_height 7
#define tiny_M_x_hot 0
#define tiny_M_y_hot 6
static unsigned char tiny_M_bits[] = {
   0x11, 0x1b, 0x15, 0x15, 0x11, 0x11, 0x11};
