#define tiny_math_notequal_width 7
#define tiny_math_notequal_height 8
#define tiny_math_notequal_x_hot 0
#define tiny_math_notequal_y_hot 7
static unsigned char tiny_math_notequal_bits[] = {
   0x08, 0x08, 0x3f, 0x08, 0x04, 0x3f, 0x04, 0x04};
