#define tiny_xsuperior_width 5
#define tiny_xsuperior_height 9
#define tiny_xsuperior_x_hot 0
#define tiny_xsuperior_y_hot 8
static unsigned char tiny_xsuperior_bits[] = {
   0x12, 0x0c, 0x04, 0x0a, 0x09, 0x00, 0x00, 0x00, 0x00};
