#define tiny_B_width 5
#define tiny_B_height 7
#define tiny_B_x_hot 0
#define tiny_B_y_hot 6
static unsigned char tiny_B_bits[] = {
   0x07, 0x09, 0x09, 0x07, 0x09, 0x09, 0x07};
