#define tiny_S_width 5
#define tiny_S_height 7
#define tiny_S_x_hot 0
#define tiny_S_y_hot 6
static unsigned char tiny_S_bits[] = {
   0x06, 0x09, 0x01, 0x06, 0x08, 0x09, 0x06};
