#define tiny_math_numbersign_width 10
#define tiny_math_numbersign_height 8
#define tiny_math_numbersign_x_hot 0
#define tiny_math_numbersign_y_hot 7
static unsigned char tiny_math_numbersign_bits[] = {
   0x48, 0x00, 0x48, 0x00, 0xfe, 0x01, 0x48, 0x00, 0x24, 0x00, 0xff, 0x00,
   0x24, 0x00, 0x24, 0x00};
