#define tiny_three_width 5
#define tiny_three_height 7
#define tiny_three_x_hot 0
#define tiny_three_y_hot 6
static unsigned char tiny_three_bits[] = {
   0x06, 0x09, 0x08, 0x06, 0x08, 0x09, 0x06};
