#define tiny_math_lessequal_width 6
#define tiny_math_lessequal_height 8
#define tiny_math_lessequal_x_hot 0
#define tiny_math_lessequal_y_hot 7
static unsigned char tiny_math_lessequal_bits[] = {
   0x30, 0x0c, 0x02, 0x0c, 0x30, 0x03, 0x0c, 0x30};
