#define tiny_P_width 5
#define tiny_P_height 7
#define tiny_P_x_hot 0
#define tiny_P_y_hot 6
static unsigned char tiny_P_bits[] = {
   0x07, 0x09, 0x09, 0x07, 0x01, 0x01, 0x01};
