#define tiny_N_width 5
#define tiny_N_height 7
#define tiny_N_x_hot 0
#define tiny_N_y_hot 6
static unsigned char tiny_N_bits[] = {
   0x09, 0x0b, 0x0b, 0x0d, 0x0d, 0x09, 0x09};
