#define tiny_math_x_width 8
#define tiny_math_x_height 6
#define tiny_math_x_x_hot 0
#define tiny_math_x_y_hot 5
static unsigned char tiny_math_x_bits[] = {
   0x26, 0x14, 0x08, 0x14, 0x53, 0x21};
