#define tiny_ampersand_width 6
#define tiny_ampersand_height 7
#define tiny_ampersand_x_hot 0
#define tiny_ampersand_y_hot 6
static unsigned char tiny_ampersand_bits[] = {
   0x06, 0x09, 0x06, 0x16, 0x09, 0x09, 0x16};
