#define tiny_U_width 5
#define tiny_U_height 7
#define tiny_U_x_hot 0
#define tiny_U_y_hot 6
static unsigned char tiny_U_bits[] = {
   0x09, 0x09, 0x09, 0x09, 0x09, 0x09, 0x06};
