#define tiny_D_width 5
#define tiny_D_height 7
#define tiny_D_x_hot 0
#define tiny_D_y_hot 6
static unsigned char tiny_D_bits[] = {
   0x07, 0x09, 0x09, 0x09, 0x09, 0x09, 0x07};
