#define tiny_X_width 5
#define tiny_X_height 7
#define tiny_X_x_hot 0
#define tiny_X_y_hot 6
static unsigned char tiny_X_bits[] = {
   0x09, 0x09, 0x06, 0x06, 0x06, 0x09, 0x09};
